Coordinates
version=1
nRows=23
nColumns=24
inDegrees=yes

Units are S.I. units (second, meters, Newtons, ...)
If the header above contains a line with 'inDegrees', this indicates whether rotational values are in degrees (yes) or radians (no).

endheader
time	pelvis_tilt	pelvis_list	pelvis_rotation	pelvis_tx	pelvis_ty	pelvis_tz	hip_flexion_r	hip_adduction_r	hip_rotation_r	knee_angle_r	ankle_angle_r	subtalar_angle_r	mtp_angle_r	hip_flexion_l	hip_adduction_l	hip_rotation_l	knee_angle_l	ankle_angle_l	subtalar_angle_l	mtp_angle_l	lumbar_extension	lumbar_bending	lumbar_rotation
1.5	6.6199937816067385	0.6926052335525392	-1.4344941772116817	0.6029568927610416	1.053652043201134	0.0028718933235817364	13.948842712262035	-7.52778003558245	-8.050205028205088	-78.93822371294335	-5.290276955185263	-8.213849475468399e-06	1.0098599883365082e-09	7.634646926605155	2.40735332909694	-1.8090633513329393	-35.273109307573506	4.147642734683469	-2.277900901160582e-06	-1.638539386833202e-15	-16.1592959917144	-3.939722951615535	-3.2750348425576274
1.517	6.66270955613704	0.6123501322735743	-1.6070026153140062	0.6099046524971451	1.0358629901849568	0.005271219029630128	10.566266910593203	-7.049735594402017	-5.937752198617276	-77.87249070600988	-9.227890946421601	-7.551650497570549e-06	5.237925941832394e-10	2.199203670951841	2.4965758326260756	-2.5029939253402778	-21.67096817156669	4.174034786945392	-6.25122982502603e-09	2.4814197164491453e-16	-15.344107506116787	-3.5018619022492232	-3.677541452160195
1.533	6.212253491641738	-2.2056652965586374	-0.10785887353384238	0.5946296251509093	1.0406798522634513	-0.0030800005142326207	15.622745189715541	-3.4683545133642824	-4.6131540696517686	-69.7089846993897	2.8246629078293006	-7.337084510764372e-06	2.1927345766680478e-10	-3.6136100765205157	0.7694122352894952	-0.042444794766477445	-6.4417599459755905	4.282259131600449	1.086360571081152e-06	9.832979284059361e-16	-15.992288749745226	0.14540034248207512	-5.9721871683445045
1.55	6.480524379510223	2.2815503659326257	2.2572527752073546	0.604811139386584	1.0459520333860084	-0.03710502169382369	41.220215624157056	-10.943854321491113	-12.395342517670327	-85.59429605412403	-9.078242542210873	-8.755255962490962e-06	-3.8170905614160145e-11	-21.76606847776921	7.7555120489155165	4.849267502029173	-22.35133577948561	9.782388306983343	2.5139229935950665e-06	-1.3810917183829318e-15	-14.581993552974323	-4.880732617819569	-12.855296848984606
1.567	6.783692582744585	2.1451504270209583	2.1434807810357865	0.5948323108675893	1.0518073147782097	-0.06834772240809606	53.86111701938639	-14.137356666783367	-17.197945796793093	-97.7095077872598	-11.145415910686026	-9.287313021280789e-06	-1.2238143048320806e-10	-33.67117681471143	11.213334525729167	8.831405293895418	-2.5863224753972602	15.500759628365419	2.1954981681844195e-06	-3.2978060455138954e-16	-15.12693890116977	-7.105368800934155	-16.230527786001918
1.583	6.098220571960762	-1.556663226300546	-2.4658311308186502	0.6055152408647358	1.0178406233759307	-0.0063578723870394505	8.945770495488539	-5.28180103534424	-1.3894556044237616	-76.71048335992687	-3.097405786681905	-2.706696387159487e-06	-1.8215716817999312e-10	-4.663869317783075	2.1855383200743232	2.8886271062503686	-2.7110642157387144	4.828489987736418	1.9969951846222766e-06	6.800961823244368e-18	-14.83849404431953	-3.00655568076344	-5.373179329701261
1.6	6.264613813336603	1.2855742682298557	1.0747695169174198	0.5942282948554228	1.0422342004481246	-0.03231782549662436	33.40483599584756	-8.990268024370266	-12.968910862757394	-65.74875567124646	-7.026899766083469	-4.985513595143765e-06	5.058000068336855e-10	-17.216786127335098	6.643152139591512	3.451752054231272	-15.285924626563364	8.374252987342455	1.887541367073659e-06	6.754147343231541e-16	-15.452004452953263	-4.6934259359493895	-10.298842657177033
1.617	5.565776486835538	0.09900617080194807	2.61973624948331	0.5894553574198934	1.0218456526224897	-0.007921091093254236	24.402004083709166	-3.1364116071504236	-4.48811371704246	-37.43874890455663	-0.6157038475942453	-3.5412088865873177e-06	3.5896330782174707e-10	-19.762799498015873	2.909140887170575	4.005324649432371	-2.753780023212351	9.821947525173558	3.392958211986927e-06	1.084148735729066e-15	-15.554878943462697	-0.02195720684791702	-9.480901351508008
1.633	5.47132535001992	-0.7157195648722401	-1.0545931672190358	0.5898000812046671	1.049352739063688	-0.0037616030076043395	14.874282232148637	-4.343370217988664	-10.089177202313163	-54.553369990953776	-1.6438277962745036	-2.1584880844828936e-06	-2.39837800876983e-10	2.8805671923938263	1.7942310837886726	-2.944809474977289	-19.512730842360213	3.5561704573735393	-3.4328989605322237e-06	-4.920778837864877e-16	-15.751583734471401	-3.0478948923130975	-3.547614559091319
1.65	4.847729021008203	-0.012934596314237101	1.2398896544232059	0.5762119314691135	1.046986651496707	0.003601433808533186	18.492825051585818	-1.9156882861402578	-9.61366900742151	-21.938169890286314	5.057763207969006	-3.236705444874159e-06	-1.6812288485475116e-10	-2.373633835339895	0.9647186482878116	-1.795164202297325	-22.543389216786764	7.2544889128346846	-3.754725165832264e-06	-5.87067989447568e-16	-16.407356646975387	-0.8685815726913492	-4.776956878785956
1.667	6.085535221797081	2.4701750766970667	1.3953296732723444	0.5924479874599207	1.0500210094359552	-0.03798122451131428	40.84467560318346	-11.43874393832653	-15.80200224255319	-68.45541119340864	-10.175195967588694	-9.589578680777102e-06	6.462640251090829e-10	-20.453888350681705	8.049580672193828	3.7891138709757843	-19.893878834622374	11.84566322757647	9.179484975454401e-07	-3.145828672452036e-16	-15.416234736604833	-5.580436988759887	-10.771299498797472
1.683	6.182450689326209	-3.5116702592583886	-4.379460888442996	0.5790989063827637	1.0688155570794715	-0.00228896064120686	5.598552333235828	-4.464474044800141	-11.095388885131172	-77.18605338257349	4.191719929222339	-8.412945773244077e-06	1.5920386397284657e-09	17.041568494028382	0.04048966012431077	-9.077768145027736	-0.2820618374361086	-0.7010518897594942	-6.9392703104459e-06	5.473139895177326e-16	-17.494010148328588	-2.564148328861521	0.6784797894613872
1.7	5.475880480745563	-2.088316234508493	-4.657396031520911	0.5865902007007575	1.048000892982163	0.005549612855326855	0.835520035047896	-4.418259361759183	-11.031704678413153	-58.5522037015664	-0.5193053153188374	-4.930361986764956e-06	-8.721357933944201e-10	15.468617524715297	0.22282619310251794	-7.768194163969912	-10.360806862765566	-0.23069621104056814	-5.986477382810655e-06	3.623097671953626e-16	-16.216625306214738	-3.7633440551864217	1.0483866810019364
1.717	4.822252417505707	0.07176639188512815	3.99186009604327	0.5729475751526076	1.0422136916288922	0.010170306265169566	24.009499390184633	0.14742799669014062	-10.200889936738673	-6.641711636675602	6.409430898072879	-7.900877939018021e-06	-8.765322925782658e-10	-12.642677855484605	0.324357665683054	0.41283723549452067	-15.80764653951207	12.805846440921941	-1.2395448853107269e-08	-1.049165516925705e-15	-16.804491975254823	2.715994258382223	-6.884662286939273
1.733	4.289525880024037	1.2762901618868248	2.296977292419731	0.571507572672424	1.0199218094115723	-0.04706846820308766	43.79741059341906	-7.240030354723009	-14.092976602962711	-24.439120883012855	-1.7093932045853242	-5.035572026248081e-06	2.3482906383886706e-10	-38.43093388290298	7.971593769180947	7.778683980100537	12.50861029356248	16.435403599038303	2.210941971675374e-06	2.2653022463907207e-15	-14.780201474950184	-3.611788038823757	-13.532247728887299
1.75	4.1371300837361495	0.7864856494452747	-0.49589847263756315	0.5649515445998498	1.029780694029255	0.00299399984079423	13.80455396235842	-2.0451819308133117	-10.769269725037168	7.568971511110963	4.178793423359545	-3.068815523803502e-06	-1.328002760129682e-10	-6.918197032123253	2.936548953992413	-1.4892870295499938	-6.934315940165395	9.868463293646249	-2.221885420109299e-06	1.514677170303167e-15	-16.719570341682502	-1.9661609302712528	-3.2570256402385693
1.767	4.411117808233773	-3.239127115641113	-5.9549143370882565	0.5676655172930064	1.0373737912691907	0.0556473152207854	-28.266041344827645	5.15095684233881	-0.8575716439800596	6.071062962342758	14.429573472254011	1.0266819598768567e-06	1.7977295928931759e-10	33.030571918043165	-5.08848788154577	-12.387165897104525	-7.15204654454304	-1.6708577666364004	-8.325649335391374e-06	4.889926544224421e-16	-18.198343147419667	0.26173789064798925	9.200393553448492
1.783	5.947903395778095	0.15263641118039994	-2.3527318128850125	0.5936605768678088	1.030776211970797	-0.004379417656525524	9.770053773009968	-6.1989206981441205	-4.903370813764956	-54.90658219036302	-1.7619587110500328	-5.5572508386035735e-06	1.3830344354818165e-10	-2.669875233181454	3.5783314336105425	0.24177588562196828	-5.026200560759384	6.032754931441213	-1.4969326189131047e-06	-2.3416605159107894e-15	-15.879077425792204	-3.9978439551350524	-4.3742753317565075
1.8	4.429104693087425	2.1744945376106473	-0.6857308131036282	0.5744586593168557	1.0060370231145948	-0.007625854619256595	13.325983074986784	-4.499565588831516	-4.91206853284621	5.3204005116186375	0.9445432845718243	-2.8120089987724326e-07	-1.6952660368281101e-10	-17.48652827976843	5.543058961068826	1.533779140619287	7.4789043513586035	10.79843320691894	-1.280257210256676e-07	6.758791705785934e-17	-15.569085686598157	-4.259538798061421	-6.235979618040867
1.817	3.9031624163180276	3.325198375629228	1.6199130993937056	0.5656710360358608	1.0076820839338259	-0.012539934213455702	22.52990468142997	-4.197340567383787	-6.619051665203559	25.658845310669918	4.63306370070236	-1.6924169983591825e-07	-9.860664528557753e-10	-25.35468700547978	6.481403288780242	4.438071445596096	0.3560812234199733	14.956506659763576	9.955896479324218e-07	3.256534283472332e-16	-15.86494448667948	-3.78855837227933	-8.719636470704103
1.833	4.128858952530561	4.877685865041439	3.7163615423079728	0.5745689775514274	0.9873856534176257	0.014644161030499637	13.19237133667922	-1.1478637327489745	0.44277125653970106	48.165213125376894	4.271800354520985	1.9368627580509218e-06	-3.1457870699913443e-10	-26.70834714821377	4.658674433778921	6.029362566626613	-7.905139034249915	18.163728020486424	2.3739336567729078e-06	3.024514292863367e-16	-15.983283126376874	-1.7341104466705797	-8.835030899576475
1.85	4.173284852948071	0.33141728064072096	1.2294262930268098	0.5720619103607946	0.998235230441993	0.02245725766372797	3.1028814235480056	2.1563029964935208	1.6881027927004086	23.46098747607205	11.467160618533557	1.7397344967925175e-06	1.6590191560006644e-09	-11.75318624872865	-0.09932488234470771	3.5330405669018616	-1.7584149339907942	11.994581087292092	5.694801259635711e-07	6.08022286025325e-16	-16.563291680506328	0.7767114584038066	-4.622535052250862
1.867	4.657335466689723	-1.0057885613993545	-4.82687573523671	0.5927556612426247	1.0038047144999411	0.0533227636099966	-24.691794124440595	1.7216586714504634	4.050984106397051	-4.38829079497401	6.735267351120495	1.8037709766865153e-06	-7.182703480563939e-10	22.088869524967034	-3.650821509549714	-5.752102861633363	-27.033954060351917	-1.570531533720363	-2.1618380044367035e-06	-4.148193228830214e-16	-16.116215752579546	-1.0441268197898237	5.113617723976878
